<svg width="58" height="56" viewBox="0 0 58 56" fill="none" xmlns="http://www.w3.org/2000/svg">
<path d="M29.1239 0.601562C13.5077 0.601562 0.844482 13.2624 0.844482 28.881C0.844482 41.3756 8.9474 51.9759 20.1837 55.7152C21.597 55.977 22.1159 55.1018 22.1159 54.3548C22.1159 53.6805 22.0896 51.4528 22.0775 49.0898C14.2101 50.8005 12.55 45.7532 12.55 45.7532C11.2636 42.4845 9.41007 41.6153 9.41007 41.6153C6.84428 39.8602 9.60348 39.8962 9.60348 39.8962C12.4432 40.0957 13.9385 42.8104 13.9385 42.8104C16.4607 47.1337 20.5541 45.8838 22.1678 45.1613C22.4217 43.3335 23.1545 42.086 23.9633 41.3798C17.682 40.6647 11.0791 38.2399 11.0791 27.404C11.0791 24.3165 12.1838 21.7938 13.9928 19.8134C13.6992 19.1011 12.7312 16.2248 14.2668 12.3295C14.2668 12.3295 16.6415 11.5695 22.0456 15.2283C24.3014 14.6017 26.7206 14.2875 29.1239 14.2767C31.5272 14.2875 33.9483 14.6017 36.2083 15.2283C41.6058 11.5695 43.9773 12.3295 43.9773 12.3295C45.5166 16.2248 44.5481 19.1011 44.2545 19.8134C46.0678 21.7938 47.165 24.3165 47.165 27.404C47.165 38.2656 40.5494 40.6572 34.2522 41.3573C35.2665 42.2349 36.1703 43.9559 36.1703 46.5942C36.1703 50.3781 36.1376 53.4234 36.1376 54.3548C36.1376 55.1074 36.6466 55.9892 38.08 55.7115C49.3102 51.9679 57.4028 41.3713 57.4028 28.881C57.4028 13.2624 44.7415 0.601562 29.1239 0.601562ZM11.436 40.8862C11.3738 41.0267 11.1527 41.0688 10.9514 40.9724C10.7462 40.8801 10.631 40.6886 10.6975 40.5476C10.7584 40.4029 10.9799 40.3626 11.1846 40.4596C11.3902 40.5518 11.5072 40.7452 11.436 40.8862ZM12.8271 42.1274C12.6922 42.2524 12.4286 42.1944 12.2497 41.9967C12.0647 41.7996 12.03 41.5359 12.1668 41.409C12.3059 41.284 12.5616 41.3425 12.747 41.5397C12.932 41.7392 12.968 42.0009 12.8271 42.1274ZM13.7814 43.7155C13.6081 43.8358 13.3248 43.723 13.1496 43.4715C12.9764 43.22 12.9764 42.9184 13.1534 42.7976C13.329 42.6768 13.6081 42.7854 13.7856 43.035C13.9584 43.2907 13.9584 43.5923 13.7814 43.7155ZM15.3953 45.5547C15.2403 45.7256 14.9102 45.6797 14.6685 45.4465C14.4213 45.2184 14.3524 44.8948 14.5079 44.7239C14.6648 44.5525 14.9968 44.6008 15.2403 44.8321C15.4857 45.0597 15.5606 45.3856 15.3953 45.5547ZM17.4811 46.1756C17.4128 46.3971 17.0948 46.4978 16.7745 46.4036C16.4546 46.3067 16.2453 46.0473 16.3099 45.8234C16.3764 45.6005 16.6958 45.4956 17.0185 45.5963C17.3379 45.6928 17.5476 45.9503 17.4811 46.1756ZM19.8549 46.4389C19.8629 46.6722 19.5913 46.8656 19.255 46.8698C18.9169 46.8773 18.6434 46.6885 18.6397 46.4591C18.6397 46.2235 18.9052 46.032 19.2433 46.0264C19.5796 46.0198 19.8549 46.2071 19.8549 46.4389ZM22.1869 46.3496C22.2272 46.5771 21.9935 46.8108 21.6596 46.8731C21.3313 46.933 21.0274 46.7926 20.9857 46.5668C20.945 46.3336 21.1829 46.0999 21.5107 46.0395C21.845 45.9815 22.1443 46.1182 22.1869 46.3496Z" fill="#FAF1E7"/>
</svg>
