<svg width="37" height="27" viewBox="0 0 37 27" fill="none" xmlns="http://www.w3.org/2000/svg">
<path fill-rule="evenodd" clip-rule="evenodd" d="M25.0914 23.9687C26.037 25.1687 27.1718 26.5266 27.1718 26.5266C34.1381 26.3055 36.8175 21.7266 36.8175 21.7266C36.8175 11.5582 32.2783 3.31605 32.2783 3.31605C27.7392 -0.0944742 23.4207 0.00026163 23.4207 0.00026163L22.9794 0.505525C28.3381 2.14763 30.8283 4.51605 30.8283 4.51605C27.5501 2.71605 24.3348 1.83184 21.3403 1.48447C19.0707 1.23184 16.8957 1.295 14.9729 1.54763C14.8077 1.54763 14.6667 1.5717 14.5076 1.59882C14.4845 1.60277 14.461 1.60678 14.437 1.61079C13.3337 1.70552 10.6544 2.11605 7.28154 3.60026C6.11523 4.13711 5.42175 4.51605 5.42175 4.51605C5.42175 4.51605 8.03806 2.02132 13.712 0.379211L13.3968 0.00026163C13.3968 0.00026163 9.07828 -0.0944742 4.53914 3.31605C4.53914 3.31605 0 11.5582 0 21.7266C0 21.7266 2.64783 26.3055 9.61415 26.5266C9.61415 26.5266 10.7805 25.1055 11.7261 23.9055C7.72284 22.7055 6.2098 20.1792 6.2098 20.1792C6.2098 20.1792 6.52501 20.4003 7.0924 20.7161C7.12393 20.7476 7.15545 20.7792 7.21849 20.8108C7.26578 20.8424 7.31306 20.8661 7.36034 20.8897C7.40762 20.9134 7.45491 20.9371 7.50219 20.9687C8.29023 21.4108 9.07828 21.7582 9.80328 22.0424C11.0957 22.5476 12.6402 23.0529 14.437 23.4003C16.8011 23.8424 19.575 24.0003 22.6011 23.4318C24.0827 23.1792 25.5957 22.7371 27.1718 22.0739C28.2751 21.6634 29.5044 21.0634 30.7968 20.2108C30.7968 20.2108 29.2207 22.8003 25.0914 23.9687ZM9.29883 15.2846C9.29883 13.3582 10.7173 11.7793 12.5141 11.7793C14.3108 11.7793 15.7608 13.3582 15.7293 15.2846C15.7293 17.2109 14.3108 18.7898 12.5141 18.7898C10.7488 18.7898 9.29883 17.2109 9.29883 15.2846ZM20.8043 15.2846C20.8043 13.3582 22.2228 11.7793 24.0195 11.7793C25.8162 11.7793 27.2347 13.3582 27.2347 15.2846C27.2347 17.2109 25.8162 18.7898 24.0195 18.7898C22.2543 18.7898 20.8043 17.2109 20.8043 15.2846Z" fill="#FAF1E7"/>
</svg>
