<svg width="33" height="28" viewBox="0 0 33 28" fill="none" xmlns="http://www.w3.org/2000/svg">
<path d="M29.6079 7.04285C29.6289 7.33814 29.6289 7.63351 29.6289 7.92881C29.6289 16.9358 22.8237 27.314 10.3858 27.314C6.55394 27.314 2.99431 26.1959 0 24.2554C0.544438 24.3186 1.06786 24.3397 1.63325 24.3397C4.79501 24.3397 7.70559 23.264 10.0298 21.4288C7.05648 21.3655 4.56472 19.4038 3.7062 16.7038C4.12502 16.767 4.54377 16.8092 4.98354 16.8092C5.59075 16.8092 6.19803 16.7248 6.76335 16.5773C3.66437 15.9444 1.34005 13.2022 1.34005 9.89052V9.80617C2.2404 10.3124 3.28744 10.6288 4.39714 10.671C2.57543 9.4475 1.38194 7.35925 1.38194 4.99673C1.38194 3.73113 1.71691 2.57097 2.30324 1.55846C5.63258 5.69284 10.6371 8.39279 16.2487 8.68815C16.144 8.1819 16.0812 7.65461 16.0812 7.12725C16.0812 3.37252 19.0964 0.313965 22.8445 0.313965C24.7919 0.313965 26.5507 1.13662 27.7862 2.46553C29.3147 2.17023 30.7804 1.60067 32.0787 0.820219C31.5761 2.40229 30.5082 3.73119 29.1053 4.57488C30.4664 4.4273 31.7856 4.04753 33 3.52024C32.0788 4.87018 30.9271 6.07248 29.6079 7.04285Z" fill="#FAF1E7"/>
</svg>
