<svg xmlns="http://www.w3.org/2000/svg" xmlns:xlink="http://www.w3.org/1999/xlink" width="200" zoomAndPan="magnify" viewBox="0 0 150 30.000001" height="40" preserveAspectRatio="xMidYMid meet" version="1.0"><defs><g><g id="id1"/></g></defs><g fill="rgb(0%, 29.019165%, 67.83905%)" fill-opacity="1"><g transform="translate(33.500749, 19.171609)"><g><path d="M 9.75 -3.328125 C 10.3125 -3.328125 10.851562 -3.410156 11.375 -3.578125 C 11.90625 -3.742188 12.296875 -3.90625 12.546875 -4.0625 L 12.921875 -4.3125 L 14.484375 -1.1875 C 14.429688 -1.15625 14.359375 -1.101562 14.265625 -1.03125 C 14.171875 -0.96875 13.957031 -0.847656 13.625 -0.671875 C 13.300781 -0.492188 12.945312 -0.335938 12.5625 -0.203125 C 12.1875 -0.078125 11.691406 0.0351562 11.078125 0.140625 C 10.472656 0.242188 9.84375 0.296875 9.1875 0.296875 C 7.6875 0.296875 6.265625 -0.0703125 4.921875 -0.8125 C 3.578125 -1.550781 2.492188 -2.5625 1.671875 -3.84375 C 0.859375 -5.132812 0.453125 -6.53125 0.453125 -8.03125 C 0.453125 -9.164062 0.691406 -10.253906 1.171875 -11.296875 C 1.648438 -12.335938 2.289062 -13.226562 3.09375 -13.96875 C 3.894531 -14.71875 4.828125 -15.3125 5.890625 -15.75 C 6.960938 -16.195312 8.0625 -16.421875 9.1875 -16.421875 C 10.226562 -16.421875 11.1875 -16.296875 12.0625 -16.046875 C 12.945312 -15.796875 13.570312 -15.550781 13.9375 -15.3125 L 14.484375 -14.9375 L 12.921875 -11.8125 C 12.828125 -11.882812 12.6875 -11.972656 12.5 -12.078125 C 12.320312 -12.191406 11.957031 -12.335938 11.40625 -12.515625 C 10.863281 -12.703125 10.3125 -12.796875 9.75 -12.796875 C 8.863281 -12.796875 8.066406 -12.648438 7.359375 -12.359375 C 6.660156 -12.078125 6.101562 -11.703125 5.6875 -11.234375 C 5.28125 -10.765625 4.96875 -10.257812 4.75 -9.71875 C 4.539062 -9.175781 4.4375 -8.628906 4.4375 -8.078125 C 4.4375 -6.847656 4.894531 -5.75 5.8125 -4.78125 C 6.726562 -3.8125 8.039062 -3.328125 9.75 -3.328125 Z M 9.75 -3.328125 "/></g></g></g><g fill="rgb(0%, 29.019165%, 67.83905%)" fill-opacity="1"><g transform="translate(48.218059, 19.171609)"><g><path d="M 9.359375 -16.125 L 15.875 0 L 11.921875 0 L 10.734375 -3.21875 L 4.59375 -3.21875 L 3.40625 0 L -0.546875 0 L 5.96875 -16.125 Z M 9.484375 -6.453125 L 7.6875 -11.140625 L 7.640625 -11.140625 L 5.84375 -6.453125 Z M 9.484375 -6.453125 "/></g></g></g><g fill="rgb(0%, 29.019165%, 67.83905%)" fill-opacity="1"><g transform="translate(63.541259, 19.171609)"><g><path d="M 4.84375 -10.015625 L 4.84375 0 L 1.171875 0 L 1.171875 -16.125 L 4.84375 -16.125 L 11.265625 -6.125 L 11.296875 -6.125 L 11.296875 -16.125 L 14.96875 -16.125 L 14.96875 0 L 11.296875 0 L 4.890625 -10.015625 Z M 4.84375 -10.015625 "/></g></g></g><g fill="rgb(0%, 29.019165%, 67.83905%)" fill-opacity="1"><g transform="translate(79.685341, 19.171609)"><g><path d="M 1.171875 -16.125 L 5.84375 -16.125 C 8.082031 -16.125 9.992188 -15.359375 11.578125 -13.828125 C 13.171875 -12.296875 13.96875 -10.378906 13.96875 -8.078125 C 13.96875 -5.753906 13.175781 -3.828125 11.59375 -2.296875 C 10.007812 -0.765625 8.09375 0 5.84375 0 L 1.171875 0 Z M 4.84375 -3.28125 L 5.421875 -3.28125 C 6.753906 -3.28125 7.847656 -3.734375 8.703125 -4.640625 C 9.554688 -5.546875 9.992188 -6.679688 10.015625 -8.046875 C 10.015625 -9.421875 9.585938 -10.5625 8.734375 -11.46875 C 7.878906 -12.382812 6.773438 -12.84375 5.421875 -12.84375 L 4.84375 -12.84375 Z M 4.84375 -3.28125 "/></g></g></g><g fill="rgb(0%, 29.019165%, 67.83905%)" fill-opacity="1"><g transform="translate(94.109478, 19.171609)"><g><path d="M 4.84375 -16.125 L 4.84375 -3.21875 L 10.40625 -3.21875 L 10.40625 0 L 1.171875 0 L 1.171875 -16.125 Z M 4.84375 -16.125 "/></g></g></g><g fill="rgb(0%, 29.019165%, 67.83905%)" fill-opacity="1"><g transform="translate(105.15235, 19.171609)"><g><path d="M 10.40625 -16.125 L 10.40625 -12.90625 L 4.84375 -12.90625 L 4.84375 -9.6875 L 10.171875 -9.6875 L 10.171875 -6.46875 L 4.84375 -6.46875 L 4.84375 -3.21875 L 10.40625 -3.21875 L 10.40625 0 L 1.171875 0 L 1.171875 -16.125 Z M 10.40625 -16.125 "/></g></g></g></svg>